<svg width="30" height="31" viewBox="0 0 30 31" fill="none" xmlns="http://www.w3.org/2000/svg"><g clip-path="url(#clip0_547_800)"><rect width="30" height="30" transform="translate(0 0.969727)" stroke="#0D0C22"></rect> <rect x="0.9375" y="1.90723" width="28.125" height="28.125" stroke="#0D0C22" stroke-width="1.5"></rect> <path d="M9.42656 9.55629V7.94754C9.42656 7.81754 9.40219 7.73223 9.35344 7.6916C9.30469 7.64285 9.21125 7.61848 9.07312 7.61848H7.96406V9.88535H9.07312C9.21125 9.88535 9.30469 9.86504 9.35344 9.82441C9.40219 9.77566 9.42656 9.68629 9.42656 9.55629ZM9.42656 12.9322V11.2382C9.42656 11.1082 9.40219 11.0229 9.35344 10.9822C9.30469 10.9335 9.21125 10.9091 9.07312 10.9091H7.96406V13.2613H9.07312C9.21125 13.2613 9.30469 13.241 9.35344 13.2004C9.40219 13.1516 9.42656 13.0622 9.42656 12.9322ZM6.5625 6.59473H9.4875C10.3731 6.59473 10.8159 6.99691 10.8159 7.80129V9.45879C10.8159 9.97066 10.6453 10.2835 10.3041 10.3972C10.6453 10.511 10.8159 10.8035 10.8159 11.2747V13.0785C10.8159 13.8829 10.3731 14.285 9.4875 14.285H6.5625V6.59473Z" fill="#0D0C22"></path> <path d="M12.0034 6.59473H13.4049V14.285H12.0034V6.59473Z" fill="#0D0C22"></path> <path d="M15.9235 6.59473H17.4104C18.296 6.59473 18.7389 6.99691 18.7389 7.80129V13.0785C18.7389 13.8829 18.296 14.285 17.4104 14.285H15.9235C15.0379 14.285 14.5951 13.8829 14.5951 13.0785V7.80129C14.5951 6.99691 15.0379 6.59473 15.9235 6.59473ZM17.3373 12.8835V7.99629C17.3373 7.86629 17.3129 7.78098 17.2642 7.74035C17.2154 7.6916 17.126 7.66723 16.996 7.66723H16.3501C16.212 7.66723 16.1185 7.6916 16.0698 7.74035C16.021 7.78098 15.9967 7.86629 15.9967 7.99629V12.8835C15.9967 13.0135 16.021 13.1029 16.0698 13.1516C16.1185 13.1922 16.212 13.2125 16.3501 13.2125H16.996C17.126 13.2125 17.2154 13.1922 17.2642 13.1516C17.3129 13.1029 17.3373 13.0135 17.3373 12.8835Z" fill="#0D0C22"></path> <path d="M7.96406 23.525H10.0116V24.5975H6.5625V16.9072H7.96406V23.525Z" fill="#0D0C22"></path> <path d="M10.7061 16.9072H12.1076V24.5975H10.7061V16.9072Z" fill="#0D0C22"></path> <path d="M16.3203 16.9072H17.6V24.5975H16.2837L14.6384 19.5032V24.5975H13.3466V16.9072H14.6994L16.3203 21.9285V16.9072Z" fill="#0D0C22"></path> <path d="M23.2951 16.9072L21.7107 20.7341L23.2829 24.5975H21.7716L20.2482 20.7341L21.7838 16.9072H23.2951ZM18.7857 24.5975V16.9072H20.1873V24.5975H18.7857Z" fill="#0D0C22"></path></g> <defs><clipPath id="clip0_547_800"><rect width="30" height="30" fill="white" transform="translate(0 0.969727)"></rect></clipPath></defs></svg>